<?xml version="1.0" standalone="no"?>
<!DOCTYPE svg PUBLIC "-//W3C//DTD SVG 20010904//EN"
 "http://www.w3.org/TR/2001/REC-SVG-20010904/DTD/svg10.dtd">
<svg version="1.0" xmlns="http://www.w3.org/2000/svg"
 width="184.000000pt" height="184.000000pt" viewBox="0 0 184.000000 184.000000"
 preserveAspectRatio="xMidYMid meet">
<metadata>
Created by potrace 1.11, written by Peter Selinger 2001-2013
</metadata>
<g transform="translate(0.000000,184.000000) scale(0.100000,-0.100000)"
fill="#000000" stroke="none">
<path d="M0 1829 c0 -5 5 -7 10 -4 5 3 10 8 10 11 0 2 -4 4 -10 4 -5 0 -10 -5
-10 -11z"/>
<path d="M103 1708 c6 -156 -5 -204 -65 -273 -21 -24 -38 -48 -38 -54 0 -21
35 -11 73 20 20 17 37 27 37 22 0 -8 -33 -68 -72 -132 l-21 -34 59 37 c32 21
69 50 82 64 l24 27 -7 -35 c-4 -19 -18 -64 -31 -100 -13 -35 -22 -65 -20 -67
7 -7 78 20 110 42 l36 24 0 -24 c0 -14 -11 -35 -25 -47 -34 -29 -31 -38 9 -38
49 0 142 -72 158 -123 10 -33 9 -39 -7 -50 -16 -13 -15 -18 23 -78 22 -35 48
-83 57 -106 10 -24 22 -43 29 -43 6 0 4 -5 -4 -10 -8 -5 -10 -10 -4 -10 15 0
25 -38 12 -46 -5 -3 -19 2 -31 13 -20 17 -20 17 1 -12 13 -16 29 -39 37 -50 8
-11 15 -40 16 -65 2 -48 32 -123 75 -191 30 -48 26 -61 -9 -27 -30 30 -124 72
-210 95 -57 15 -73 16 -114 5 -42 -11 -128 -58 -202 -110 -23 -15 -23 -15 -18
3 13 48 18 117 8 110 -6 -3 -11 -1 -11 4 0 6 4 11 9 11 5 0 7 9 4 20 -3 11 -9
18 -13 15 -5 -3 -6 4 -3 15 4 16 2 19 -11 14 -19 -7 -20 0 -4 26 10 15 9 37
-1 102 -7 46 -19 128 -26 183 l-13 100 1 -93 c1 -52 5 -96 9 -98 5 -3 4 -14
-2 -24 -7 -13 -6 -20 3 -23 9 -3 9 -9 -1 -26 -17 -29 -15 -91 5 -183 15 -73
15 -82 0 -138 -9 -33 -17 -79 -17 -102 1 -40 2 -42 15 -24 8 11 15 16 16 10 0
-5 4 1 9 14 5 12 17 22 26 22 15 0 15 -2 -2 -22 -10 -13 -23 -26 -28 -29 -5
-4 -6 -18 -2 -32 7 -28 -6 -73 -20 -69 -5 1 -10 -25 -12 -58 -3 -59 -2 -60 23
-60 19 0 42 17 86 64 64 69 123 100 175 94 25 -3 21 -6 -30 -21 -43 -14 -73
-32 -112 -69 -30 -28 -54 -54 -54 -58 0 -4 84 -8 188 -9 l187 -1 30 28 c17 16
39 39 50 53 l20 24 -30 -25 c-17 -14 -36 -31 -42 -39 -7 -8 -13 -11 -13 -7 0
15 32 69 74 124 24 31 49 67 55 80 12 23 15 23 112 18 67 -4 98 -3 94 4 -4 6
-10 8 -15 5 -10 -6 -24 57 -17 77 2 7 16 -7 33 -34 24 -40 37 -51 87 -69 51
-19 284 -151 297 -168 3 -3 17 -12 33 -18 16 -8 27 -20 27 -33 0 -20 6 -20
290 -20 l290 0 0 126 0 126 -27 -5 -28 -6 28 12 c26 10 27 14 27 84 l0 73 -27
-7 c-16 -3 -53 -17 -83 -29 -30 -12 -57 -21 -59 -19 -2 3 16 28 39 57 37 45
38 48 9 20 l-34 -32 -11 47 -12 48 5 -60 c4 -53 2 -65 -22 -99 -24 -35 -26
-46 -21 -90 6 -48 4 -54 -31 -103 -21 -29 -41 -53 -45 -53 -9 0 -27 58 -30 95
-1 19 7 43 22 62 12 18 29 60 35 95 7 35 21 101 30 148 18 94 51 164 73 155 7
-2 11 -1 8 4 -7 11 50 122 58 114 3 -4 6 0 6 8 0 8 11 37 24 64 l23 50 8 -35
c8 -35 35 -84 35 -63 0 6 -9 32 -20 58 -18 43 -19 49 -5 82 27 64 8 46 -29
-28 -41 -82 -43 -79 -19 28 12 56 25 86 45 108 28 30 35 45 21 45 -5 0 -18
-16 -31 -36 -12 -19 -27 -32 -32 -29 -5 3 -12 0 -16 -6 -4 -8 -3 -9 4 -5 14 9
15 -4 2 -24 -8 -12 -10 -12 -10 -1 0 9 -7 6 -19 -8 -12 -14 -22 -45 -26 -79
-9 -77 -21 -113 -66 -202 -49 -96 -107 -179 -139 -199 -21 -13 -19 -9 10 26
84 99 145 236 165 369 11 71 21 103 40 128 14 18 25 38 25 45 0 7 4 10 8 7 4
-2 8 4 9 14 1 16 -3 15 -27 -10 -36 -37 -70 -126 -81 -213 -6 -52 -21 -93 -64
-175 -47 -92 -125 -209 -125 -188 0 4 20 42 45 85 74 129 113 221 123 297 14
98 31 130 162 306 43 58 50 74 50 113 0 26 -4 44 -9 41 -9 -6 -112 40 -121 54
-3 4 -21 16 -40 26 l-35 19 55 5 c55 5 55 5 18 13 -27 6 -39 15 -46 35 -6 15
-13 36 -18 47 -6 17 -3 16 22 -6 16 -15 49 -37 74 -49 l44 -23 -53 59 c-52 56
-53 59 -30 63 23 3 23 3 -6 17 -30 13 -29 13 16 8 35 -4 55 -1 87 16 56 29 55
52 -2 69 -39 11 -68 34 -104 82 -10 14 -5 15 46 12 44 -2 51 -1 30 6 -15 5
-40 18 -57 30 -29 21 -35 21 -671 21 -600 0 -644 -1 -656 -17 -13 -17 -13 -17
-15 2 -1 11 -5 0 -9 -25 l-7 -45 -1 43 -2 42 -104 0 -103 0 -7 -32 c-6 -29 -8
-31 -17 -15 -6 10 -8 25 -5 33 3 8 0 14 -6 14 -8 0 -9 -39 -5 -132z m67 95 c0
-20 -3 -24 -11 -16 -7 7 -9 19 -6 27 10 24 17 19 17 -11z m300 2 c0 -16 -6
-25 -15 -25 -18 0 -20 21 -3 38 17 17 18 16 18 -13z m571 -218 c-16 -16 -17
-9 -12 73 l5 75 9 -68 c7 -48 6 -72 -2 -80z m97 63 c39 -102 39 -107 -5 -119
-51 -15 -50 -16 -45 24 3 26 12 40 31 50 25 14 25 14 4 15 -21 0 -23 5 -23 52
0 60 8 55 38 -22z m-371 44 c-3 -3 -12 -4 -19 -1 -8 3 -5 6 6 6 11 1 17 -2 13
-5z m-153 -239 l28 -36 -49 3 -48 3 -2 80 -3 80 23 -47 c13 -25 36 -63 51 -83z
m579 105 c3 -11 1 -20 -4 -20 -5 0 -9 9 -9 20 0 11 2 20 4 20 2 0 6 -9 9 -20z
m-135 -23 c-1 -25 -9 -38 -40 -60 -21 -15 -36 -32 -33 -37 3 -5 1 -11 -5 -15
-5 -3 -10 3 -10 15 0 19 10 31 55 64 18 14 18 15 3 16 -27 0 -3 49 24 50 4 0
7 -15 6 -33z m-71 -29 c-3 -7 -5 -2 -5 12 0 14 2 19 5 13 2 -7 2 -19 0 -25z
m240 -89 c-4 -30 -2 -39 9 -39 12 0 15 -24 13 -142 -1 -133 -3 -146 -27 -188
-27 -48 -151 -173 -193 -195 -24 -13 -35 -9 -161 49 -74 35 -149 73 -166 86
-53 39 -172 180 -172 203 0 16 3 18 9 8 6 -10 10 -10 16 -1 4 6 -2 21 -14 34
-12 12 -21 25 -21 29 0 13 28 7 41 -9 7 -9 22 -14 35 -11 13 2 29 0 36 -5 9
-7 7 -8 -7 -3 -16 5 -17 4 -8 -6 16 -16 68 -16 88 1 9 7 15 25 15 39 -3 42 -1
51 13 51 23 0 66 -54 72 -90 15 -84 15 -84 29 -64 13 17 14 16 29 -12 l16 -29
1 41 c0 23 8 75 17 115 l17 74 7 -45 c4 -25 13 -58 20 -75 l13 -30 3 40 c10
146 14 165 34 165 10 0 19 5 19 10 0 6 11 -1 25 -15 30 -29 38 -31 55 -10 7 8
22 15 34 14 14 0 16 -2 6 -6 -31 -11 -42 -26 -28 -34 21 -14 62 -10 84 9 24
19 37 59 23 68 -5 3 -7 10 -3 15 12 21 26 -6 21 -42z m213 14 c0 -5 -4 -15
-10 -23 -11 -18 -25 -7 -17 15 6 15 27 21 27 8z m-760 -35 c0 -4 -21 -8 -46
-8 -25 0 -43 -4 -40 -9 3 -4 -5 -13 -18 -19 -21 -9 -25 -8 -30 10 -3 12 -3 25
0 30 7 11 134 8 134 -4z m470 -24 c0 -2 -9 -4 -20 -4 -11 0 -20 4 -20 9 0 5 9
7 20 4 11 -3 20 -7 20 -9z m-438 -18 c10 -16 4 -18 -26 -6 -15 5 -39 10 -52
10 -14 0 -22 4 -19 10 8 12 87 1 97 -14z m-195 -8 c-3 -8 -6 -5 -6 6 -1 11 2
17 5 13 3 -3 4 -12 1 -19z m1220 -100 c-11 -15 -25 -24 -30 -21 -6 4 -8 0 -4
-10 3 -9 2 -19 -3 -22 -6 -4 -10 -1 -10 4 0 6 -7 11 -16 11 -8 0 -13 4 -10 8
2 4 1 14 -4 22 -11 17 31 39 71 37 l27 -1 -21 -28z m-1537 9 c0 -2 -12 -14
-27 -28 l-28 -24 24 28 c23 25 31 32 31 24z m1049 -414 l1 -93 -35 -14 c-80
-34 -99 -32 -200 18 -82 41 -96 51 -103 79 -5 18 -8 34 -6 36 2 2 21 -6 43
-17 22 -12 58 -23 81 -26 50 -6 60 -12 60 -36 0 -13 5 -17 20 -13 51 13 47 56
-7 74 l-35 11 73 73 c39 40 77 81 83 91 9 16 12 10 17 -36 4 -30 7 -97 8 -147z
m53 33 c-8 -16 -11 -4 -10 54 l0 75 10 -54 c7 -36 7 -61 0 -75z m35 62 c-3 -8
-6 -5 -6 6 -1 11 2 17 5 13 3 -3 4 -12 1 -19z m20 -40 c-3 -8 -6 -5 -6 6 -1
11 2 17 5 13 3 -3 4 -12 1 -19z m189 -91 c12 4 15 2 12 -8 -2 -7 -19 -16 -36
-20 -29 -6 -32 -4 -32 18 0 20 3 22 19 13 11 -5 27 -7 37 -3z m54 -18 c0 -5
-4 -9 -10 -9 -5 0 -10 7 -10 16 0 8 5 12 10 9 6 -3 10 -10 10 -16z m-352 -91
c-10 -28 -176 -49 -185 -23 -2 6 14 9 39 7 24 -2 63 4 88 12 58 18 62 18 58 4z
m-1222 -75 c-10 -10 -19 5 -10 18 6 11 8 11 12 0 2 -7 1 -15 -2 -18z m554 -6
c0 -5 -4 -5 -10 -2 -5 3 -10 14 -10 23 0 15 2 15 10 2 5 -8 10 -19 10 -23z
m-540 -37 c0 -5 -4 -10 -10 -10 -5 0 -10 5 -10 10 0 6 5 10 10 10 6 0 10 -4
10 -10z m563 -105 l6 -40 -14 30 c-8 17 -14 44 -14 60 0 25 2 27 8 10 5 -11
11 -38 14 -60z m162 -151 c10 -70 1 -62 -17 14 -12 50 -13 62 -3 49 7 -10 16
-38 20 -63z m595 -3 c0 -6 -11 -23 -25 -38 -27 -31 -34 -16 -9 22 16 25 34 33
34 16z m-1090 -61 c-8 -5 -25 -10 -36 -10 -12 0 -27 -7 -35 -16 -7 -8 -29 -24
-48 -34 -42 -22 -87 -67 -94 -95 l-5 -20 -1 20 c0 11 5 31 12 45 17 33 154
118 192 119 23 1 26 -2 15 -9z m73 -7 c-7 -2 -19 -2 -25 0 -7 3 -2 5 12 5 14
0 19 -2 13 -5z m147 -33 c8 -5 11 -10 5 -10 -5 0 -17 5 -25 10 -8 5 -10 10 -5
10 6 0 17 -5 25 -10z m-397 -130 c6 -22 -18 -49 -25 -28 -6 17 2 48 12 48 4 0
10 -9 13 -20z"/>
<path d="M1175 1359 c-16 -10 -25 -19 -18 -19 19 0 63 22 63 32 0 12 -11 9
-45 -13z"/>
<path d="M670 1200 c-13 -8 -12 -10 3 -10 9 0 17 5 17 10 0 12 -1 12 -20 0z"/>
<path d="M618 1193 c6 -2 18 -2 25 0 6 3 1 5 -13 5 -14 0 -19 -2 -12 -5z"/>
<path d="M1028 993 c7 -3 16 -2 19 1 4 3 -2 6 -13 5 -11 0 -14 -3 -6 -6z"/>
<path d="M1800 1831 c0 -6 9 -9 20 -8 11 1 20 5 20 9 0 4 -9 8 -20 8 -11 0
-20 -4 -20 -9z"/>
<path d="M1813 1607 c-25 -11 -27 -16 -15 -34 11 -18 46 7 41 29 -3 12 -9 13
-26 5z"/>
<path d="M1790 672 c-36 -53 -41 -62 -37 -62 6 0 69 91 65 95 -2 2 -14 -13
-28 -33z"/>
<path d="M1728 605 c-2 -25 0 -45 4 -45 5 0 8 20 8 45 0 25 -2 45 -4 45 -2 0
-6 -20 -8 -45z"/>
<path d="M514 448 c27 -32 50 -58 53 -58 9 0 -36 55 -68 85 -23 21 -18 12 15
-27z"/>
<path d="M908 197 c-3 -6 0 -54 6 -104 7 -68 13 -93 23 -93 8 0 11 4 8 10 -3
5 -2 10 4 10 5 0 12 -6 15 -12 3 -7 3 11 0 41 -6 48 -5 53 12 48 11 -3 40 -8
67 -12 31 -4 47 -11 47 -21 0 -8 5 -14 11 -14 20 0 5 43 -16 45 -55 4 -121 18
-132 27 -10 8 -13 5 -14 -8 0 -16 -2 -15 -12 4 -8 19 -8 25 4 33 12 8 12 10 0
18 -7 5 -11 13 -7 19 3 6 2 13 -3 16 -5 3 -11 0 -13 -7z"/>
<path d="M713 183 c15 -2 37 -2 50 0 12 2 0 4 -28 4 -27 0 -38 -2 -22 -4z"/>
<path d="M828 113 c7 -3 16 -2 19 1 4 3 -2 6 -13 5 -11 0 -14 -3 -6 -6z"/>
<path d="M673 93 c9 -2 25 -2 35 0 9 3 1 5 -18 5 -19 0 -27 -2 -17 -5z"/>
<path d="M1090 26 c0 -8 -6 -17 -12 -19 -7 -3 1 -6 19 -6 24 -1 31 3 27 13 -8
20 -34 29 -34 12z"/>
<path d="M700 19 c-90 -15 -82 -17 60 -18 79 0 127 4 115 8 -36 15 -119 19
-175 10z"/>
</g>
</svg>
